<?xml version="1.0" encoding="utf-8"?>
<!-- Generator: Adobe Illustrator 16.0.0, SVG Export Plug-In . SVG Version: 6.00 Build 0)  -->
<!DOCTYPE svg PUBLIC "-//W3C//DTD SVG 1.1//EN" "http://www.w3.org/Graphics/SVG/1.1/DTD/svg11.dtd">
<svg version="1.1" id="Layer_1" xmlns="http://www.w3.org/2000/svg" xmlns:xlink="http://www.w3.org/1999/xlink" x="0px" y="0px"
	 width="234px" height="86px" viewBox="0 0 234 86" enable-background="new 0 0 234 86" xml:space="preserve">
<g>
	<g>
		<g>
			<g>
				<path fill="#1E7C3E" d="M3.443,57.69c0.411,0.911,1.015,1.587,1.811,2.024c0.796,0.439,1.677,0.657,2.643,0.657
					c0.679,0,1.31-0.106,1.891-0.322c0.582-0.214,1.087-0.514,1.515-0.899c0.43-0.383,0.765-0.838,1.007-1.367
					c0.241-0.526,0.362-1.112,0.362-1.757c0-0.555-0.147-1.05-0.443-1.488c-0.295-0.438-0.675-0.827-1.141-1.167
					c-0.465-0.34-0.979-0.631-1.542-0.872c-0.563-0.241-1.113-0.461-1.649-0.657c-0.609-0.216-1.226-0.461-1.852-0.738
					c-0.625-0.278-1.193-0.613-1.703-1.005c-0.509-0.395-0.929-0.851-1.26-1.369s-0.497-1.126-0.497-1.822
					c0-0.752,0.144-1.446,0.429-2.081c0.286-0.634,0.68-1.18,1.179-1.636c0.502-0.457,1.092-0.808,1.772-1.059
					c0.679-0.251,1.413-0.376,2.199-0.376c1.126,0,2.159,0.26,3.099,0.777c0.938,0.518,1.641,1.315,2.105,2.388l-0.75,0.323
					c-0.413-0.912-1.016-1.588-1.811-2.026c-0.797-0.438-1.677-0.657-2.643-0.657c-0.68,0-1.31,0.107-1.892,0.321
					c-0.581,0.216-1.086,0.515-1.516,0.899c-0.429,0.386-0.764,0.841-1.005,1.369c-0.242,0.528-0.363,1.113-0.363,1.759
					c0,0.571,0.147,1.07,0.443,1.501c0.295,0.429,0.675,0.813,1.141,1.153c0.464,0.34,0.979,0.635,1.542,0.886
					c0.564,0.25,1.113,0.465,1.65,0.644c0.608,0.214,1.224,0.46,1.85,0.737c0.627,0.277,1.196,0.613,1.705,1.006
					c0.509,0.394,0.93,0.851,1.26,1.367c0.331,0.521,0.496,1.127,0.496,1.825c0,0.752-0.144,1.444-0.429,2.081
					c-0.287,0.634-0.679,1.179-1.181,1.635c-0.5,0.456-1.091,0.809-1.77,1.059c-0.68,0.25-1.414,0.375-2.2,0.375
					c-1.145,0-2.182-0.259-3.112-0.776c-0.931-0.52-1.628-1.315-2.093-2.389L3.443,57.69z"/>
			</g>
			<g>
				<path fill="#1E7C3E" d="M17.366,46.477v9.201c0,0.697,0.125,1.328,0.375,1.892c0.25,0.563,0.595,1.05,1.034,1.461
					c0.437,0.412,0.947,0.729,1.529,0.952c0.581,0.225,1.202,0.336,1.865,0.336c0.66,0,1.283-0.111,1.864-0.336
					c0.581-0.223,1.091-0.54,1.529-0.952c0.438-0.411,0.782-0.898,1.032-1.461c0.25-0.563,0.375-1.194,0.375-1.892v-9.201h0.806
					v9.201c0,0.804-0.148,1.543-0.443,2.214c-0.295,0.669-0.697,1.246-1.207,1.729c-0.51,0.482-1.104,0.854-1.784,1.112
					c-0.68,0.259-1.404,0.389-2.172,0.389c-0.77,0-1.494-0.13-2.174-0.389c-0.68-0.258-1.274-0.63-1.784-1.112
					c-0.51-0.483-0.912-1.061-1.208-1.729c-0.294-0.671-0.442-1.41-0.442-2.214v-9.201H17.366z"/>
			</g>
			<g>
				<path fill="#1E7C3E" d="M41.884,36.899v23.956c-0.357,0.036-0.715,0.059-1.073,0.067c-0.358,0.008-0.688,0.013-0.993,0.013
					c-1.52,0-2.848-0.209-3.983-0.63c-1.136-0.419-2.083-0.97-2.843-1.649c-0.761-0.68-1.329-1.462-1.703-2.348
					c-0.376-0.885-0.564-1.784-0.564-2.695c0-0.931,0.188-1.833,0.564-2.711c0.375-0.875,0.942-1.657,1.703-2.346
					c0.76-0.689,1.711-1.243,2.857-1.664c1.144-0.419,2.477-0.63,3.997-0.63c0.197,0,0.394,0.004,0.59,0.013
					c0.197,0.01,0.412,0.023,0.644,0.04v-9.416H41.884z M39.818,60.131c0.197,0,0.398,0,0.604,0c0.206,0,0.425-0.009,0.657-0.027
					V47.121c-0.215-0.02-0.424-0.031-0.629-0.041c-0.207-0.009-0.408-0.015-0.604-0.015c-1.395,0-2.611,0.189-3.648,0.565
					c-1.038,0.375-1.901,0.871-2.588,1.488c-0.688,0.617-1.207,1.314-1.556,2.092c-0.349,0.778-0.523,1.578-0.523,2.401
					s0.175,1.622,0.523,2.4c0.35,0.777,0.868,1.472,1.556,2.08c0.688,0.606,1.551,1.1,2.588,1.475
					C37.234,59.943,38.442,60.131,39.818,60.131z"/>
			</g>
			<g>
				<path fill="#1E7C3E" d="M46.552,48.193c0.661-0.625,1.395-1.113,2.2-1.462c0.804-0.35,1.717-0.524,2.736-0.524
					c0.519,0,1.059,0.091,1.623,0.27s1.082,0.482,1.557,0.913c0.474,0.429,0.867,0.996,1.18,1.702
					c0.312,0.707,0.47,1.579,0.47,2.615v9.147h-0.805V59.46c-0.645,0.59-1.374,1.016-2.187,1.273
					c-0.814,0.259-1.65,0.389-2.508,0.389c-0.752,0-1.471-0.125-2.16-0.374c-0.688-0.251-1.292-0.603-1.812-1.06
					c-0.519-0.456-0.934-1.011-1.247-1.665c-0.313-0.65-0.469-1.38-0.469-2.185s0.151-1.529,0.456-2.175
					c0.303-0.642,0.719-1.191,1.247-1.647c0.527-0.457,1.136-0.806,1.824-1.046c0.688-0.242,1.407-0.364,2.16-0.364
					c1,0,1.891,0.176,2.669,0.524c0.777,0.348,1.452,0.791,2.025,1.328v-0.752c0-0.894-0.131-1.641-0.39-2.24
					c-0.259-0.597-0.586-1.081-0.979-1.448c-0.394-0.366-0.828-0.625-1.302-0.777c-0.474-0.151-0.925-0.228-1.354-0.228
					c-0.913,0-1.727,0.151-2.441,0.455c-0.715,0.305-1.351,0.725-1.904,1.261L46.552,48.193z M50.817,60.318
					c0.875,0,1.729-0.155,2.562-0.471c0.832-0.312,1.543-0.835,2.133-1.568v-4.667c-0.59-0.731-1.284-1.282-2.08-1.65
					c-0.796-0.366-1.669-0.55-2.615-0.55c-0.644,0-1.261,0.104-1.851,0.309c-0.59,0.206-1.11,0.501-1.557,0.885
					c-0.447,0.385-0.804,0.851-1.073,1.395c-0.268,0.547-0.402,1.159-0.402,1.839s0.134,1.297,0.402,1.852
					c0.269,0.554,0.626,1.027,1.073,1.422c0.447,0.392,0.967,0.692,1.557,0.898C49.556,60.215,50.173,60.318,50.817,60.318z"/>
			</g>
			<g>
				<path fill="#1E7C3E" d="M60.501,46.477v1.181c0.626-0.466,1.336-0.822,2.132-1.073c0.796-0.251,1.596-0.377,2.401-0.377
					c1.198,0,2.312,0.3,3.34,0.9c1.028,0.6,1.766,1.498,2.213,2.695c0.088,0.214,0.164,0.455,0.228,0.726
					c0.063,0.268,0.094,0.651,0.094,1.152v9.174h-0.805v-9.174c0-0.769-0.151-1.443-0.456-2.025
					c-0.303-0.581-0.697-1.068-1.181-1.462c-0.482-0.393-1.023-0.688-1.623-0.885c-0.599-0.197-1.202-0.295-1.81-0.295
					c-0.823,0-1.642,0.143-2.455,0.427c-0.814,0.287-1.507,0.69-2.079,1.209v12.205h-0.805V46.477H60.501z"/>
			</g>
			<g>
				<path fill="#1E7C3E" d="M83.114,60.854V42.077h10.623v0.804H83.92v7.083h8.048v0.805H83.92v10.086H83.114z"/>
			</g>
			<g>
				<path fill="#1E7C3E" d="M95.965,48.193c0.661-0.625,1.395-1.113,2.2-1.462c0.805-0.35,1.716-0.524,2.736-0.524
					c0.519,0,1.061,0.091,1.623,0.27c0.564,0.179,1.082,0.482,1.556,0.913c0.474,0.429,0.868,0.996,1.18,1.702
					c0.313,0.707,0.469,1.579,0.469,2.615v9.147h-0.804V59.46c-0.644,0.59-1.373,1.016-2.187,1.273
					c-0.814,0.259-1.649,0.389-2.507,0.389c-0.752,0-1.472-0.125-2.16-0.374c-0.688-0.251-1.292-0.603-1.811-1.06
					c-0.52-0.456-0.935-1.011-1.248-1.665c-0.314-0.65-0.469-1.38-0.469-2.185s0.151-1.529,0.456-2.175
					c0.303-0.642,0.719-1.191,1.248-1.647c0.527-0.457,1.136-0.806,1.824-1.046c0.688-0.242,1.408-0.364,2.16-0.364
					c1,0,1.891,0.176,2.668,0.524c0.778,0.348,1.454,0.791,2.026,1.328v-0.752c0-0.894-0.13-1.641-0.39-2.24
					c-0.259-0.597-0.586-1.081-0.979-1.448c-0.394-0.366-0.828-0.625-1.301-0.777c-0.475-0.151-0.926-0.228-1.355-0.228
					c-0.912,0-1.726,0.151-2.441,0.455c-0.715,0.305-1.35,0.725-1.905,1.261L95.965,48.193z M100.23,60.318
					c0.875,0,1.73-0.155,2.561-0.471c0.832-0.312,1.543-0.835,2.133-1.568v-4.667c-0.59-0.731-1.284-1.282-2.08-1.65
					c-0.796-0.366-1.667-0.55-2.615-0.55c-0.644,0-1.261,0.104-1.852,0.309c-0.589,0.206-1.109,0.501-1.556,0.885
					C96.376,52.99,96.019,53.456,95.75,54c-0.267,0.547-0.402,1.159-0.402,1.839s0.135,1.297,0.402,1.852
					c0.269,0.554,0.627,1.027,1.073,1.422c0.447,0.392,0.967,0.692,1.556,0.898C98.969,60.215,99.587,60.318,100.23,60.318z"/>
			</g>
			<g>
				<path fill="#1E7C3E" d="M114.448,47.014c-0.823,0-1.641,0.143-2.455,0.427c-0.814,0.287-1.507,0.69-2.08,1.209v12.205h-0.805
					V46.477h0.805v1.181c0.626-0.466,1.336-0.822,2.133-1.073c0.795-0.251,1.597-0.377,2.401-0.377V47.014z"/>
			</g>
			<g>
				<path fill="#1E7C3E" d="M117.961,46.477v1.181c0.552-0.466,1.167-0.822,1.836-1.073c0.671-0.251,1.426-0.377,2.269-0.377
					c1.108,0,2.06,0.288,2.855,0.858c0.797,0.573,1.363,1.378,1.703,2.416c0.34-1.038,0.899-1.843,1.678-2.416
					c0.776-0.57,1.72-0.858,2.83-0.858c0.697,0,1.35,0.126,1.957,0.377c0.608,0.251,1.132,0.613,1.569,1.085
					c0.438,0.477,0.787,1.052,1.047,1.731c0.259,0.68,0.39,1.45,0.39,2.307v9.147h-0.805v-9.147c0-0.268-0.051-0.661-0.146-1.179
					c-0.101-0.521-0.302-1.037-0.605-1.558c-0.305-0.519-0.729-0.975-1.274-1.367c-0.545-0.394-1.257-0.59-2.132-0.59
					c-0.733,0-1.36,0.146-1.879,0.443c-0.518,0.293-0.942,0.67-1.273,1.125c-0.332,0.456-0.574,0.957-0.725,1.502
					c-0.152,0.546-0.228,1.061-0.228,1.542v9.229h-0.805v-9.229c0-0.481-0.081-0.996-0.243-1.542
					c-0.159-0.545-0.405-1.046-0.736-1.502c-0.33-0.455-0.761-0.832-1.287-1.125c-0.527-0.297-1.159-0.443-1.891-0.443
					c-0.823,0-1.584,0.151-2.281,0.455c-0.698,0.305-1.306,0.707-1.824,1.208v12.178h-0.805V46.477H117.961z"/>
			</g>
			<g>
				<path fill="#1E7C3E" d="M140.145,59.729c0.359,0.144,0.792,0.264,1.301,0.362c0.511,0.097,0.954,0.147,1.329,0.147
					c0.805,0,1.531-0.084,2.173-0.256c0.643-0.169,1.194-0.405,1.649-0.712c0.456-0.303,0.805-0.66,1.047-1.07
					c0.24-0.412,0.361-0.85,0.361-1.314c0-0.699-0.353-1.283-1.06-1.759c-0.706-0.473-1.729-0.825-3.071-1.06
					c-1.557-0.25-2.75-0.688-3.581-1.313c-0.832-0.625-1.248-1.396-1.248-2.307c0-0.573,0.143-1.114,0.431-1.622
					c0.284-0.511,0.687-0.954,1.206-1.33c0.519-0.374,1.153-0.671,1.904-0.884c0.752-0.215,1.583-0.323,2.494-0.323
					c0.43,0,0.931,0.055,1.504,0.161c0.572,0.107,1.055,0.241,1.448,0.403l-0.322,0.751c-0.356-0.143-0.79-0.264-1.3-0.362
					c-0.511-0.099-0.953-0.149-1.33-0.149c-0.805,0-1.528,0.087-2.171,0.257c-0.645,0.17-1.193,0.407-1.65,0.712
					c-0.455,0.302-0.805,0.66-1.048,1.071c-0.239,0.412-0.361,0.851-0.361,1.315c0,0.697,0.354,1.282,1.061,1.757
					c0.706,0.475,1.73,0.827,3.07,1.06c1.558,0.251,2.75,0.687,3.582,1.314c0.831,0.625,1.247,1.395,1.247,2.308
					c0,0.571-0.143,1.113-0.428,1.623c-0.287,0.509-0.69,0.951-1.208,1.327c-0.52,0.376-1.153,0.67-1.905,0.886
					c-0.75,0.213-1.582,0.321-2.494,0.321c-0.43,0-0.93-0.055-1.503-0.161c-0.572-0.108-1.056-0.241-1.447-0.402L140.145,59.729z"/>
			</g>
		</g>
		<g>
			<path fill="#1E7C3E" d="M4.812,28.965c-1.066-0.504-1.88-1.225-2.444-2.163c-0.563-0.938-0.844-2.068-0.844-3.392
				c0-0.987,0.148-2.014,0.444-3.08l1.156-0.445l0.177,0.119c-0.237,0.968-0.355,1.925-0.355,2.874c0,1.776,0.489,3.12,1.466,4.028
				c0.978,0.908,2.435,1.363,4.371,1.363c1.252,0,2.376-0.222,3.374-0.667c0.997-0.444,1.74-1.042,2.229-1.792
				c0.371-0.771,0.558-1.609,0.558-2.519c0-0.75-0.12-1.594-0.357-2.532c-0.238-0.937-0.612-2.019-1.124-3.243l1.185-0.86h0.178
				c0.474,1.125,0.849,2.251,1.126,3.377c0.276,1.126,0.415,2.083,0.415,2.874c0,1.362-0.321,2.557-0.963,3.583
				c-0.642,1.027-1.545,1.822-2.71,2.385c-1.166,0.563-2.518,0.844-4.059,0.844C7.152,29.719,5.878,29.468,4.812,28.965z
				 M8.723,14.316l-1.688-1.185l1.036-1.57l1.718,1.155L8.723,14.316z"/>
			<path fill="#1E7C3E" d="M20.567,24.328l-0.174-0.088V4.511l1.306-0.326l0.146,0.089l-0.03,19.729L20.567,24.328z"/>
			<path fill="#1E7C3E" d="M26.585,24.181c-0.751-0.079-1.315-0.167-1.689-0.267l0.174-1.274l0.146-0.118
				c0.444,0.079,1.005,0.148,1.682,0.207c0.677,0.06,1.268,0.089,1.771,0.089c1.258,0,2.336-0.167,3.237-0.503
				c0.899-0.336,1.456-0.781,1.668-1.333c-0.229-2.094-1.719-4.61-4.473-7.554l0.741-1.304h0.208
				c1.521,1.601,2.725,3.125,3.614,4.578c0.889,1.45,1.333,2.72,1.333,3.805c0,1.205-0.558,2.139-1.673,2.799
				c-1.116,0.662-2.671,0.993-4.666,0.993C28.025,24.299,27.334,24.258,26.585,24.181z"/>
			<path fill="#1E7C3E" d="M50.253,23.291c0,0.258-0.124,0.476-0.371,0.653c-0.247,0.177-0.587,0.266-1.021,0.266h-2.37
				c-0.356,0.948-0.909,1.792-1.66,2.533c-0.75,0.74-1.703,1.342-2.858,1.806c-1.155,0.465-2.483,0.716-3.983,0.755L37.13,28.15
				l0.148-0.178c1.205-0.02,2.325-0.188,3.362-0.504c1.037-0.315,1.926-0.755,2.666-1.317c0.741-0.563,1.308-1.209,1.703-1.941
				h-1.097c-1.915,0-3.298-0.301-4.146-0.904c-0.85-0.602-1.274-1.555-1.274-2.858c0-0.849,0.191-1.698,0.573-2.548
				c0.381-0.848,0.899-1.549,1.553-2.102c0.654-0.553,1.362-0.83,2.125-0.83c0.803,0,1.537,0.316,2.201,0.948
				c0.663,0.632,1.181,1.472,1.552,2.518c0.372,1.048,0.558,2.183,0.558,3.407c0,0.218-0.019,0.524-0.059,0.918h2.493
				C49.998,22.759,50.253,22.937,50.253,23.291z M45.513,22.759c0.039-0.355,0.06-0.632,0.06-0.83c0-0.966-0.141-1.87-0.424-2.71
				c-0.281-0.839-0.646-1.511-1.092-2.014c-0.448-0.503-0.923-0.756-1.429-0.756c-0.486,0-0.939,0.193-1.356,0.578
				c-0.418,0.385-0.75,0.878-0.993,1.481c-0.243,0.604-0.363,1.221-0.363,1.852c0,0.613,0.125,1.092,0.378,1.437
				c0.253,0.346,0.685,0.592,1.297,0.741c0.612,0.148,1.463,0.222,2.553,0.222H45.513z"/>
			<path fill="#1E7C3E" d="M73.684,22.892c0.118,0.089,0.178,0.223,0.178,0.399c0,0.258-0.125,0.476-0.371,0.653
				c-0.247,0.177-0.578,0.266-0.993,0.266c-0.77,0-1.521-0.113-2.251-0.341c-0.73-0.226-1.362-0.567-1.896-1.021
				c-0.375,0.474-0.844,0.819-1.407,1.036c-0.563,0.218-1.249,0.326-2.058,0.326c-0.553,0-1.131-0.089-1.733-0.266
				c-0.603-0.177-1.122-0.405-1.555-0.682c-0.316,0.336-0.687,0.577-1.11,0.726c-0.425,0.148-0.962,0.222-1.615,0.222
				c-0.909,0-1.782-0.124-2.622-0.371c-0.84-0.246-1.565-0.597-2.177-1.051c-0.533,0.514-1.205,0.879-2.014,1.096
				c-0.811,0.218-1.876,0.326-3.199,0.326l0.591-1.451c0.831,0,1.545-0.064,2.148-0.192c0.602-0.128,1.189-0.37,1.763-0.726
				c0.374-0.593,0.859-1.796,1.451-3.613l1.392-0.208l0.178,0.088c-0.257,0.81-0.504,1.506-0.741,2.089s-0.484,1.08-0.74,1.495
				c0.434,0.336,1.042,0.593,1.822,0.77c0.78,0.178,1.604,0.277,2.473,0.297c0.573,0,1.076-0.128,1.511-0.385
				c0.217-0.315,0.493-0.889,0.83-1.718c0.335-0.83,0.612-1.639,0.83-2.429l1.392-0.208l0.148,0.119
				c-0.296,0.81-0.574,1.561-0.829,2.251c-0.258,0.692-0.495,1.244-0.711,1.659c0.355,0.198,0.785,0.367,1.289,0.504
				c0.503,0.139,1.021,0.208,1.555,0.208c0.967,0,1.748-0.276,2.341-0.83c0.158-0.454,0.281-0.982,0.37-1.584
				c0.088-0.603,0.134-1.24,0.134-1.911c0-0.296-0.022-0.721-0.06-1.273l1.245-0.504l0.207,0.06c0.019,0.295,0.03,0.721,0.03,1.273
				c0,1.481-0.159,2.686-0.475,3.613c0.493,0.356,1.082,0.638,1.763,0.845c0.681,0.208,1.457,0.312,2.325,0.312
				C73.368,22.759,73.566,22.803,73.684,22.892z"/>
			<path fill="#1E7C3E" d="M73.1,22.759c0.682,0,1.307-0.06,1.878-0.178c0.57-0.119,1.066-0.356,1.488-0.711
				c0.139-0.593,0.209-1.332,0.209-2.222V4.511l1.251-0.326l0.17,0.089v15.463c0,1.165-0.212,2.073-0.637,2.725
				c-0.424,0.653-1.042,1.106-1.851,1.364c-0.81,0.256-1.847,0.384-3.11,0.384L73.1,22.759z"/>
			<path fill="#1E7C3E" d="M82.744,24.328l-0.173-0.088V4.511l1.305-0.326l0.146,0.089l-0.029,19.729L82.744,24.328z"/>
			<path fill="#1E7C3E" d="M110.831,35.378c-2.251,0.77-4.454,1.155-6.606,1.155c-1.856,0-3.495-0.256-4.917-0.77
				c-1.422-0.515-2.529-1.25-3.318-2.207c-0.79-0.958-1.184-2.069-1.184-3.333c0-1.284,0.37-2.469,1.11-3.555
				s1.831-2.073,3.274-2.962c-0.891-0.829-1.577-1.718-2.061-2.667c-0.482-0.947-0.724-1.914-0.724-2.902
				c0-0.928,0.222-1.744,0.666-2.443c0.444-0.701,1.063-1.245,1.852-1.63c0.789-0.386,1.679-0.578,2.667-0.578
				c0.631,0,1.303,0.084,2.014,0.252c0.71,0.168,1.352,0.39,1.926,0.667l-0.181,1.363l-0.12,0.03
				c-0.582-0.257-1.199-0.459-1.851-0.608c-0.652-0.148-1.258-0.222-1.819-0.222c-0.743,0-1.395,0.128-1.956,0.386
				c-0.563,0.256-0.998,0.627-1.309,1.11c-0.312,0.483-0.466,1.052-0.466,1.704c0,0.829,0.235,1.648,0.705,2.458
				c0.47,0.81,1.157,1.589,2.058,2.34c1.601-0.791,3.542-1.471,5.826-2.044l0.149,0.089l-0.119,1.421
				c-3.308,0.849-5.837,1.916-7.591,3.2c-1.752,1.284-2.629,2.774-2.629,4.473c0,0.987,0.341,1.862,1.024,2.621
				c0.683,0.761,1.647,1.343,2.894,1.748c1.246,0.404,2.69,0.607,4.333,0.607c0.91,0,1.88-0.078,2.909-0.236
				c1.029-0.158,2.019-0.396,2.968-0.711l0.179,0.149L110.831,35.378z"/>
			<path fill="#1E7C3E" d="M107.334,28.09l0.087-0.207c1.577-0.277,2.994-0.746,4.25-1.407c1.255-0.663,2.234-1.408,2.934-2.237
				c0.701-0.83,1.051-1.609,1.051-2.34c-0.018-0.631-0.2-1.396-0.545-2.295c-0.345-0.899-0.834-1.95-1.468-3.155l1.007-1.095h0.208
				c0.671,1.204,1.209,2.365,1.614,3.479c0.405,1.117,0.607,2.059,0.607,2.83c0,0.85-0.228,1.699-0.682,2.547
				c-0.415,0.771-1.036,1.496-1.866,2.178c-0.829,0.681-1.796,1.263-2.902,1.748c-1.107,0.484-2.271,0.834-3.496,1.052
				L107.334,28.09z"/>
			<path fill="#1E7C3E" d="M121.282,24.328l-0.174-0.088V4.511l1.306-0.326l0.146,0.089l-0.029,19.729L121.282,24.328z"/>
			<path fill="#1E7C3E" d="M136.424,23.291c0,0.258-0.123,0.476-0.37,0.653c-0.248,0.177-0.589,0.266-1.021,0.266
				c-0.574,0-1.067-0.108-1.483-0.326c-0.413-0.217-0.799-0.572-1.154-1.066c-0.276,0.968-0.843,1.891-1.702,2.77
				c-0.859,0.878-1.916,1.633-3.171,2.266c-1.253,0.632-2.573,1.076-3.954,1.334l-0.801-1.097l0.09-0.207
				c1.679-0.296,3.155-0.79,4.429-1.481c1.272-0.692,2.261-1.477,2.961-2.355c0.702-0.879,1.091-1.752,1.171-2.622
				c-0.117-0.356-0.315-0.818-0.592-1.392c-0.277-0.573-0.563-1.156-0.859-1.749l-0.918-1.836l1.036-1.095h0.236
				c0.436,1.065,0.899,2.128,1.393,3.185s0.908,1.901,1.244,2.531c0.236,0.456,0.454,0.8,0.652,1.037
				c0.197,0.238,0.45,0.406,0.756,0.504c0.306,0.099,0.726,0.148,1.26,0.148C136.156,22.759,136.424,22.937,136.424,23.291z
				 M129.966,11.384l-1.689-1.185l1.038-1.57l1.717,1.155L129.966,11.384z"/>
			<path fill="#1E7C3E" d="M145.844,15.856c0.711,0.731,1.268,1.66,1.674,2.784c0.404,1.126,0.605,2.242,0.605,3.348
				c0,0.811-0.231,1.438-0.694,1.881c-0.465,0.445-1.142,0.667-2.03,0.667c-0.869,0-1.837-0.212-2.902-0.638
				c-1.067-0.424-2.113-1.012-3.141-1.762c-0.335,0.553-0.687,0.972-1.052,1.259c-0.365,0.286-0.801,0.493-1.303,0.622
				c-0.504,0.128-1.161,0.192-1.969,0.192l0.593-1.451c0.552,0,0.987-0.064,1.302-0.192c0.315-0.128,0.576-0.33,0.785-0.607
				c0.206-0.277,0.49-0.711,0.844-1.303c0.1-0.159,0.276-0.524,0.534-1.097c0.415-0.908,0.81-1.688,1.184-2.34
				c0.376-0.652,0.834-1.225,1.377-1.718c0.544-0.493,1.142-0.741,1.794-0.741C144.333,14.76,145.133,15.126,145.844,15.856z
				 M146.702,22.018c0-0.771-0.167-1.609-0.503-2.519c-0.332-0.907-0.76-1.677-1.28-2.31c-0.521-0.632-1.037-0.948-1.549-0.948
				c-0.394,0-0.762,0.178-1.105,0.534c-0.345,0.355-0.649,0.79-0.916,1.303c-0.265,0.515-0.565,1.167-0.897,1.956
				c-0.197,0.395-0.334,0.691-0.414,0.888c0.904,0.633,1.809,1.146,2.713,1.54c0.905,0.396,1.642,0.593,2.211,0.593
				c0.453,0,0.813-0.045,1.077-0.133c0.266-0.09,0.477-0.232,0.635-0.43C146.691,22.393,146.702,22.236,146.702,22.018z"/>
		</g>
	</g>
	<g>
		<path fill="#010101" d="M4.684,79.918v0.291c0,0.818-0.185,1.458-0.556,1.924c-0.371,0.467-0.906,0.699-1.604,0.699
			c-0.387,0-0.798-0.114-1.237-0.343l0.314-0.813c0.197,0.087,0.358,0.143,0.485,0.171c0.126,0.023,0.264,0.037,0.414,0.037
			c0.364,0,0.648-0.148,0.853-0.444c0.206-0.296,0.307-0.687,0.307-1.172v-6.228h1.024v4.93h1.498c0.044,0,0.065,0.018,0.065,0.049
			v0.839c0,0.041-0.021,0.06-0.065,0.06H4.684z"/>
		<path fill="#010101" d="M6.064,79.918c-0.04,0-0.06-0.019-0.06-0.06V79.02c0-0.031,0.02-0.049,0.06-0.049h1.503
			c-0.3-0.779-0.449-1.471-0.449-2.071c0-0.722,0.146-1.365,0.438-1.93c0.296-0.249,0.636-0.445,1.018-0.591
			c0.383-0.147,0.782-0.221,1.196-0.221c0.506,0,0.95,0.111,1.333,0.334c0.383,0.224,0.676,0.541,0.881,0.95
			c0.206,0.411,0.309,0.877,0.309,1.397c0,0.518-0.086,0.994-0.254,1.429c0.173,0.264,0.367,0.447,0.583,0.549
			c0.216,0.104,0.498,0.153,0.85,0.153h0.06c0.042,0,0.064,0.018,0.064,0.049v0.839c0,0.041-0.022,0.06-0.064,0.06h-0.06
			c-0.43,0-0.796-0.06-1.101-0.176c-0.304-0.119-0.596-0.323-0.876-0.609c-0.257,0.268-0.556,0.466-0.897,0.594
			c-0.342,0.128-0.698,0.191-1.069,0.191H6.064z M8.207,76.692c0,0.375,0.033,0.743,0.101,1.104c0.067,0.36,0.188,0.753,0.362,1.174
			h0.858c0.54,0,0.955-0.182,1.243-0.549c0.288-0.368,0.433-0.897,0.433-1.594c0-0.509-0.14-0.925-0.417-1.249
			c-0.278-0.321-0.618-0.485-1.016-0.485c-0.256,0-0.508,0.046-0.754,0.135c-0.247,0.093-0.467,0.213-0.661,0.361
			c-0.067,0.171-0.108,0.345-0.125,0.52C8.215,76.285,8.207,76.479,8.207,76.692z"/>
		<path fill="#010101" d="M13.411,79.918c-0.04,0-0.059-0.019-0.059-0.06V79.02c0-0.031,0.019-0.049,0.059-0.049h1.965v-4.93h1.078
			v4.93h1.818c0.039,0,0.059,0.018,0.059,0.049v0.839c0,0.041-0.021,0.06-0.059,0.06H13.411z M14.855,72.887
			c-0.189,0-0.35-0.059-0.482-0.172c-0.133-0.115-0.199-0.301-0.199-0.556c0-0.259,0.066-0.444,0.199-0.559
			c0.132-0.113,0.292-0.17,0.482-0.17c0.205,0,0.369,0.061,0.492,0.186c0.122,0.124,0.183,0.305,0.183,0.543
			c0,0.231-0.061,0.411-0.18,0.538C15.229,72.823,15.064,72.887,14.855,72.887z M16.952,72.887c-0.208,0-0.375-0.063-0.498-0.189
			c-0.122-0.127-0.183-0.307-0.183-0.538c0-0.234,0.06-0.414,0.18-0.539c0.121-0.127,0.287-0.189,0.501-0.189
			c0.217,0,0.384,0.065,0.503,0.197c0.118,0.132,0.178,0.309,0.178,0.531c0,0.219-0.06,0.396-0.178,0.529
			C17.336,72.819,17.168,72.887,16.952,72.887z"/>
		<path fill="#010101" d="M20.343,78.971c0.044,0,0.065,0.018,0.065,0.049v0.839c0,0.041-0.021,0.06-0.065,0.06h-2.19
			c-0.04,0-0.059-0.019-0.059-0.06V79.02c0-0.031,0.02-0.049,0.059-0.049H20.343z"/>
		<path fill="#010101" d="M21.667,78.971c0.043,0,0.065,0.018,0.065,0.049v0.839c0,0.041-0.021,0.06-0.065,0.06h-2.191
			c-0.04,0-0.059-0.019-0.059-0.06V79.02c0-0.031,0.019-0.049,0.059-0.049H21.667z"/>
		<path fill="#010101" d="M29.452,79.918c-0.364,0-0.699-0.061-1.004-0.179c-0.307-0.121-0.623-0.343-0.95-0.667
			c-0.177,0.248-0.415,0.451-0.711,0.611c-0.295,0.155-0.649,0.234-1.06,0.234h-4.179c-0.04,0-0.059-0.019-0.059-0.06V79.02
			c0-0.031,0.019-0.049,0.059-0.049h1.734v-3.99h1.03v3.99h1.309c0.39,0,0.693-0.128,0.911-0.387
			c0.217-0.258,0.326-0.596,0.326-1.016V74.98h1.03v2.914l-0.011,0.135c0.201,0.349,0.42,0.591,0.659,0.732
			c0.239,0.141,0.544,0.209,0.916,0.209h0.739v-4.93h1.03v4.93h1.623c0.043,0,0.064,0.018,0.064,0.049v0.839
			c0,0.041-0.021,0.06-0.064,0.06H29.452z"/>
		<path fill="#010101" d="M32.725,79.918c-0.039,0-0.059-0.019-0.059-0.06V79.02c0-0.031,0.02-0.049,0.059-0.049h1.504
			c-0.3-0.779-0.45-1.471-0.45-2.071c0-0.722,0.146-1.365,0.438-1.93c0.296-0.249,0.635-0.445,1.019-0.591
			c0.383-0.147,0.781-0.221,1.195-0.221c0.506,0,0.95,0.111,1.333,0.334c0.382,0.224,0.677,0.541,0.882,0.95
			c0.205,0.411,0.308,0.877,0.308,1.397c0,0.636-0.115,1.186-0.346,1.646c-0.23,0.462-0.557,0.814-0.977,1.063
			c-0.42,0.246-0.901,0.369-1.441,0.369H32.725z M34.869,76.692c0,0.375,0.034,0.743,0.1,1.104c0.067,0.36,0.188,0.753,0.362,1.174
			h0.858c0.54,0,0.956-0.182,1.244-0.549c0.287-0.368,0.432-0.897,0.432-1.594c0-0.509-0.14-0.925-0.418-1.249
			c-0.278-0.321-0.617-0.485-1.016-0.485c-0.256,0-0.508,0.046-0.754,0.135c-0.247,0.093-0.467,0.213-0.66,0.361
			c-0.067,0.171-0.109,0.345-0.125,0.52C34.876,76.285,34.869,76.479,34.869,76.692z"/>
		<path fill="#010101" d="M49.519,82.832c-0.758,0-1.354-0.264-1.788-0.787c-0.434-0.525-0.652-1.237-0.652-2.138
			c0-0.423,0.035-0.803,0.104-1.142c0.069-0.34,0.177-0.688,0.323-1.044h1.007c-0.091,0.226-0.161,0.441-0.21,0.647
			c-0.05,0.21-0.083,0.411-0.104,0.602c-0.019,0.193-0.029,0.481-0.029,0.866c0,0.655,0.136,1.16,0.409,1.515
			c0.273,0.356,0.663,0.533,1.173,0.533h2.255c0.577,0,1.054-0.107,1.433-0.323c0.379-0.215,0.568-0.473,0.568-0.772
			c0-0.164-0.075-0.307-0.225-0.425c-0.151-0.119-0.378-0.222-0.682-0.31c-0.611-0.173-1.031-0.326-1.257-0.455
			c-0.228-0.13-0.401-0.292-0.521-0.486c-0.121-0.192-0.18-0.421-0.18-0.687c0-0.466,0.139-0.916,0.417-1.35s0.638-0.785,1.08-1.058
			c0.442-0.269,0.884-0.404,1.326-0.404c0.272,0,0.514,0.048,0.726,0.148c0.211,0.098,0.409,0.241,0.595,0.428
			c0.185,0.188,0.416,0.5,0.693,0.934c0.347,0.56,0.605,0.937,0.772,1.131c0.168,0.194,0.312,0.337,0.429,0.429
			c0.119,0.095,0.244,0.163,0.374,0.213s0.272,0.073,0.426,0.073h0.066c0.039,0,0.059,0.018,0.059,0.049v0.839
			c0,0.041-0.02,0.06-0.059,0.06h-0.066c-0.339,0-0.666-0.075-0.979-0.227c-0.314-0.152-0.637-0.403-0.968-0.755
			c-0.095-0.1-0.302-0.378-0.622-0.834c-0.391-0.555-0.7-0.924-0.93-1.113c-0.228-0.19-0.443-0.285-0.645-0.285
			c-0.221,0-0.458,0.085-0.71,0.255s-0.464,0.382-0.633,0.637c-0.17,0.254-0.255,0.484-0.255,0.689c0,0.134,0.073,0.254,0.217,0.361
			c0.144,0.106,0.376,0.207,0.695,0.302c0.58,0.169,0.991,0.317,1.235,0.444c0.242,0.126,0.425,0.275,0.55,0.445
			c0.125,0.174,0.187,0.369,0.187,0.59c0,1.603-1.039,2.404-3.114,2.404H49.519z M49.892,85.254c-0.189,0-0.35-0.059-0.481-0.173
			c-0.133-0.114-0.199-0.299-0.199-0.556c0-0.258,0.066-0.442,0.199-0.557c0.132-0.114,0.292-0.172,0.481-0.172
			c0.206,0,0.37,0.062,0.492,0.187c0.122,0.124,0.183,0.305,0.183,0.542c0,0.233-0.06,0.411-0.18,0.538
			C50.266,85.19,50.101,85.254,49.892,85.254z M51.988,85.254c-0.209,0-0.375-0.063-0.497-0.19s-0.185-0.305-0.185-0.538
			s0.061-0.414,0.182-0.54s0.287-0.188,0.5-0.188c0.217,0,0.385,0.065,0.503,0.199c0.117,0.131,0.177,0.309,0.177,0.529
			s-0.06,0.397-0.177,0.529C52.373,85.187,52.205,85.254,51.988,85.254z"/>
		<path fill="#010101" d="M60.111,78.971c0.043,0,0.064,0.018,0.064,0.049v0.839c0,0.041-0.021,0.06-0.064,0.06H57.92
			c-0.039,0-0.059-0.019-0.059-0.06V79.02c0-0.031,0.02-0.049,0.059-0.049H60.111z"/>
		<path fill="#010101" d="M61.434,78.971c0.043,0,0.064,0.018,0.064,0.049v0.839c0,0.041-0.021,0.06-0.064,0.06h-2.191
			c-0.04,0-0.059-0.019-0.059-0.06V79.02c0-0.031,0.02-0.049,0.059-0.049H61.434z"/>
		<path fill="#010101" d="M61.315,79.918c-0.039,0-0.059-0.019-0.059-0.06V79.02c0-0.031,0.02-0.049,0.059-0.049h1.599v-4.93h1.078
			v5.877H61.315z M63.446,72.887c-0.208,0-0.374-0.063-0.497-0.189c-0.122-0.127-0.183-0.307-0.183-0.538
			c0-0.234,0.06-0.414,0.18-0.539c0.121-0.127,0.288-0.189,0.5-0.189c0.217,0,0.386,0.065,0.503,0.197
			c0.119,0.132,0.178,0.309,0.178,0.531c0,0.219-0.059,0.396-0.178,0.529C63.832,72.819,63.663,72.887,63.446,72.887z"/>
		<path fill="#010101" d="M67.447,70.707h1.078v9.211h-1.078V70.707z"/>
		<path fill="#010101" d="M76.723,80.209c0,0.826-0.244,1.468-0.731,1.93c-0.488,0.463-1.178,0.693-2.069,0.693
			c-0.826,0-1.554-0.208-2.185-0.621l0.485-0.812c0.26,0.139,0.529,0.254,0.805,0.346c0.277,0.094,0.583,0.14,0.918,0.14
			c0.549,0,0.979-0.147,1.291-0.44c0.311-0.295,0.467-0.687,0.467-1.176v-0.351h-1.19c-0.86,0-1.526-0.234-1.998-0.71
			c-0.472-0.474-0.707-1.158-0.707-2.054c0-0.951,0.302-1.709,0.905-2.271c0.604-0.562,1.411-0.843,2.422-0.843h1.586v4.93h0.995
			c0.039,0,0.059,0.018,0.059,0.049v0.839c0,0.041-0.02,0.06-0.059,0.06h-0.995V80.209z M75.693,78.971v-3.99h-0.521
			c-0.719,0-1.279,0.19-1.679,0.57c-0.4,0.378-0.601,0.909-0.601,1.592c0,0.633,0.137,1.094,0.412,1.389
			c0.274,0.294,0.689,0.439,1.246,0.439H75.693z"/>
		<path fill="#010101" d="M77.599,79.918c-0.04,0-0.059-0.019-0.059-0.06V79.02c0-0.031,0.019-0.049,0.059-0.049h1.965v-4.93h1.079
			v4.93h1.817c0.039,0,0.059,0.018,0.059,0.049v0.839c0,0.041-0.02,0.06-0.059,0.06H77.599z M79.091,82.347
			c-0.189,0-0.351-0.057-0.482-0.172c-0.132-0.114-0.199-0.3-0.199-0.558c0-0.255,0.066-0.44,0.199-0.556
			c0.132-0.115,0.293-0.172,0.482-0.172c0.205,0,0.369,0.063,0.492,0.186c0.122,0.125,0.183,0.307,0.183,0.542
			c0,0.233-0.06,0.413-0.18,0.54C79.465,82.283,79.3,82.347,79.091,82.347z M81.188,82.347c-0.21,0-0.375-0.063-0.498-0.189
			c-0.122-0.127-0.183-0.307-0.183-0.54c0-0.232,0.06-0.412,0.18-0.539c0.121-0.125,0.287-0.188,0.501-0.188
			c0.217,0,0.384,0.066,0.502,0.199c0.119,0.132,0.178,0.308,0.178,0.528c0,0.223-0.059,0.397-0.178,0.531
			C81.572,82.281,81.404,82.347,81.188,82.347z"/>
		<path fill="#010101" d="M82.341,79.918c-0.039,0-0.059-0.019-0.059-0.06V79.02c0-0.031,0.02-0.049,0.059-0.049h5.198
			c-0.296-0.295-0.55-1.036-0.764-2.218c-0.118-0.699-0.29-1.188-0.514-1.47c-0.225-0.279-0.563-0.42-1.013-0.42
			c-0.561,0-1.146,0.161-1.758,0.484l-0.421-0.833c0.348-0.227,0.698-0.381,1.051-0.468c0.354-0.088,0.734-0.131,1.14-0.131
			c0.494,0,0.906,0.088,1.237,0.266c0.332,0.178,0.595,0.44,0.791,0.79c0.196,0.351,0.345,0.852,0.447,1.501
			c0.119,0.723,0.251,1.28,0.4,1.674c0.148,0.393,0.319,0.676,0.512,0.85v0.922H82.341z"/>
		<path fill="#010101" d="M93.618,82.832c-0.825,0-1.553-0.208-2.185-0.621l0.486-0.812c0.261,0.139,0.529,0.254,0.805,0.346
			c0.277,0.094,0.583,0.14,0.918,0.14c0.548,0,0.979-0.147,1.29-0.44c0.312-0.295,0.468-0.687,0.468-1.176v-0.351h-1.19
			c-0.86,0-1.525-0.234-1.998-0.71c-0.472-0.474-0.708-1.158-0.708-2.054c0-0.951,0.301-1.709,0.906-2.271
			c0.604-0.562,1.411-0.843,2.421-0.843h1.586v6.168c0,0.826-0.244,1.468-0.73,1.93C95.2,82.602,94.51,82.832,93.618,82.832z
			 M95.389,78.971v-3.99h-0.521c-0.718,0-1.277,0.19-1.678,0.57c-0.401,0.378-0.601,0.909-0.601,1.592
			c0,0.633,0.137,1.094,0.412,1.389c0.274,0.294,0.69,0.439,1.247,0.439H95.389z"/>
		<path fill="#010101" d="M107.221,82.832c-0.758,0-1.354-0.264-1.788-0.787c-0.434-0.525-0.651-1.237-0.651-2.138
			c0-0.423,0.034-0.803,0.104-1.142c0.069-0.34,0.176-0.688,0.322-1.044h1.007c-0.091,0.226-0.161,0.441-0.21,0.647
			c-0.049,0.21-0.083,0.411-0.103,0.602c-0.021,0.193-0.031,0.481-0.031,0.866c0,0.655,0.137,1.16,0.409,1.515
			c0.272,0.356,0.663,0.533,1.171,0.533h2.256c0.576,0,1.055-0.107,1.433-0.323c0.379-0.215,0.568-0.473,0.568-0.772
			c0-0.164-0.074-0.307-0.225-0.425c-0.149-0.119-0.376-0.222-0.681-0.31c-0.612-0.173-1.031-0.326-1.258-0.455
			c-0.227-0.13-0.401-0.292-0.521-0.486c-0.121-0.192-0.181-0.421-0.181-0.687c0-0.466,0.139-0.916,0.417-1.35
			s0.639-0.785,1.081-1.058c0.442-0.269,0.884-0.404,1.326-0.404c0.271,0,0.514,0.048,0.725,0.148
			c0.21,0.098,0.41,0.241,0.596,0.428c0.185,0.188,0.416,0.5,0.691,0.934c0.348,0.56,0.606,0.937,0.773,1.131
			c0.168,0.194,0.31,0.337,0.429,0.429c0.119,0.095,0.243,0.163,0.374,0.213c0.13,0.05,0.272,0.073,0.426,0.073h0.065
			c0.041,0,0.06,0.018,0.06,0.049v0.839c0,0.041-0.019,0.06-0.06,0.06h-0.065c-0.339,0-0.665-0.075-0.98-0.227
			c-0.313-0.152-0.637-0.403-0.968-0.755c-0.094-0.1-0.302-0.378-0.622-0.834c-0.391-0.555-0.7-0.924-0.929-1.113
			c-0.23-0.19-0.445-0.285-0.646-0.285c-0.221,0-0.458,0.085-0.709,0.255c-0.253,0.17-0.464,0.382-0.634,0.637
			c-0.169,0.254-0.254,0.484-0.254,0.689c0,0.134,0.071,0.254,0.216,0.361c0.144,0.106,0.375,0.207,0.696,0.302
			c0.58,0.169,0.992,0.317,1.234,0.444c0.243,0.126,0.426,0.275,0.551,0.445c0.125,0.174,0.187,0.369,0.187,0.59
			c0,1.603-1.038,2.404-3.114,2.404H107.221z M107.595,85.254c-0.19,0-0.352-0.059-0.483-0.173
			c-0.132-0.114-0.198-0.299-0.198-0.556c0-0.258,0.066-0.442,0.198-0.557c0.131-0.114,0.293-0.172,0.483-0.172
			c0.204,0,0.368,0.062,0.49,0.187c0.123,0.124,0.184,0.305,0.184,0.542c0,0.233-0.061,0.411-0.181,0.538
			C107.967,85.19,107.803,85.254,107.595,85.254z M109.69,85.254c-0.21,0-0.375-0.063-0.498-0.19s-0.184-0.305-0.184-0.538
			s0.061-0.414,0.181-0.54c0.12-0.126,0.286-0.188,0.5-0.188c0.217,0,0.384,0.065,0.503,0.199c0.119,0.131,0.178,0.309,0.178,0.529
			s-0.06,0.397-0.178,0.529S109.907,85.254,109.69,85.254z"/>
		<path fill="#010101" d="M117.812,78.971c0.043,0,0.065,0.018,0.065,0.049v0.839c0,0.041-0.022,0.06-0.065,0.06h-2.19
			c-0.04,0-0.059-0.019-0.059-0.06V79.02c0-0.031,0.019-0.049,0.059-0.049H117.812z"/>
		<path fill="#010101" d="M119.134,78.971c0.044,0,0.064,0.018,0.064,0.049v0.839c0,0.041-0.021,0.06-0.064,0.06h-2.189
			c-0.04,0-0.059-0.019-0.059-0.06V79.02c0-0.031,0.019-0.049,0.059-0.049H119.134z"/>
		<path fill="#010101" d="M119.017,79.918c-0.041,0-0.06-0.019-0.06-0.06V79.02c0-0.031,0.019-0.049,0.06-0.049h1.863
			c-0.256-0.217-0.463-0.513-0.621-0.893c-0.156-0.379-0.234-0.8-0.234-1.261c0-0.912,0.26-1.623,0.783-2.136
			c0.522-0.509,1.223-0.766,2.098-0.766c0.348,0,0.669,0.034,0.963,0.103c0.294,0.069,0.536,0.154,0.726,0.253l-0.328,0.906
			c-0.498-0.21-0.972-0.314-1.419-0.314c-1.147,0-1.724,0.667-1.724,2.002c0,0.625,0.14,1.135,0.412,1.523
			c0.275,0.391,0.635,0.582,1.082,0.582h2.16v0.947H119.017z"/>
		<path fill="#010101" d="M127.747,70.707h1.078v9.211h-1.078V70.707z"/>
		<path fill="#010101" d="M132.003,82.832c-0.388,0-0.8-0.114-1.237-0.343l0.313-0.813c0.196,0.087,0.359,0.143,0.486,0.171
			c0.127,0.023,0.264,0.037,0.415,0.037c0.361,0,0.646-0.148,0.851-0.444c0.206-0.296,0.308-0.687,0.308-1.172v-6.228h1.025v6.168
			c0,0.818-0.187,1.458-0.556,1.924C133.236,82.6,132.701,82.832,132.003,82.832z"/>
		<path fill="#010101" d="M137.157,82.832c-0.387,0-0.799-0.114-1.236-0.343l0.314-0.813c0.196,0.087,0.357,0.143,0.485,0.171
			c0.127,0.023,0.265,0.037,0.414,0.037c0.362,0,0.647-0.148,0.853-0.444s0.307-0.687,0.307-1.172v-6.228h1.026v6.168
			c0,0.818-0.187,1.458-0.556,1.924C138.392,82.6,137.858,82.832,137.157,82.832z M138.744,72.887c-0.209,0-0.375-0.063-0.497-0.189
			c-0.122-0.127-0.184-0.307-0.184-0.538c0-0.234,0.061-0.414,0.181-0.539c0.12-0.127,0.288-0.189,0.5-0.189
			c0.218,0,0.386,0.065,0.503,0.197c0.12,0.132,0.179,0.309,0.179,0.531c0,0.219-0.059,0.396-0.179,0.529
			C139.13,72.819,138.962,72.887,138.744,72.887z"/>
		<path fill="#010101" d="M157.817,78.971c0.04,0,0.061,0.018,0.061,0.049v0.839c0,0.041-0.021,0.06-0.061,0.06h-1.333v0.072
			c0,1.895-1.021,2.842-3.065,2.842h-2.864c-0.889,0-1.591-0.264-2.103-0.787c-0.513-0.525-0.771-1.237-0.771-2.138
			c0-1.029,0.167-1.984,0.498-2.859h1.007c-0.277,0.772-0.416,1.702-0.416,2.789c0,0.655,0.177,1.16,0.525,1.515
			c0.348,0.356,0.841,0.533,1.477,0.533h2.451c0.79,0,1.358-0.152,1.709-0.459c0.348-0.306,0.521-0.781,0.521-1.423v-0.085h-1.118
			c-0.896,0-1.579-0.234-2.051-0.71c-0.473-0.474-0.707-1.158-0.707-2.054c0-0.96,0.302-1.718,0.905-2.276s1.409-0.837,2.415-0.837
			h1.586v4.93H157.817z M155.454,78.971v-3.99h-0.52c-0.719,0-1.279,0.19-1.678,0.57c-0.4,0.378-0.601,0.909-0.601,1.592
			c0,0.633,0.136,1.094,0.411,1.389c0.274,0.294,0.689,0.439,1.245,0.439H155.454z M153.626,72.887c-0.189,0-0.35-0.059-0.481-0.172
			c-0.133-0.115-0.199-0.301-0.199-0.556c0-0.259,0.066-0.444,0.199-0.559c0.132-0.113,0.292-0.17,0.481-0.17
			c0.205,0,0.368,0.061,0.49,0.186c0.124,0.124,0.186,0.305,0.186,0.543c0,0.231-0.061,0.411-0.182,0.538
			C154.001,72.823,153.836,72.887,153.626,72.887z M155.724,72.887c-0.212,0-0.377-0.063-0.499-0.189
			c-0.122-0.127-0.183-0.307-0.183-0.538c0-0.234,0.06-0.414,0.181-0.539c0.119-0.127,0.286-0.189,0.501-0.189
			c0.216,0,0.384,0.065,0.501,0.197c0.119,0.132,0.18,0.309,0.18,0.531c0,0.219-0.061,0.396-0.18,0.529
			C156.107,72.819,155.939,72.887,155.724,72.887z"/>
		<path fill="#010101" d="M157.699,79.918c-0.04,0-0.059-0.019-0.059-0.06V79.02c0-0.031,0.019-0.049,0.059-0.049h2.327v-4.93h1.076
			v5.877H157.699z M158.487,82.347c-0.19,0-0.351-0.057-0.483-0.172c-0.131-0.114-0.197-0.3-0.197-0.558
			c0-0.255,0.066-0.44,0.197-0.556c0.133-0.115,0.293-0.172,0.483-0.172c0.205,0,0.368,0.063,0.49,0.186
			c0.123,0.125,0.185,0.307,0.185,0.542c0,0.233-0.061,0.413-0.18,0.54C158.86,82.283,158.696,82.347,158.487,82.347z
			 M160.584,82.347c-0.211,0-0.377-0.063-0.498-0.189c-0.123-0.127-0.183-0.307-0.183-0.54c0-0.232,0.059-0.412,0.179-0.539
			c0.119-0.125,0.286-0.188,0.502-0.188c0.217,0,0.383,0.066,0.502,0.199c0.118,0.132,0.179,0.308,0.179,0.528
			c0,0.223-0.061,0.397-0.179,0.531C160.967,82.281,160.801,82.347,160.584,82.347z"/>
		<path fill="#010101" d="M169.279,80.209c0,0.826-0.245,1.468-0.732,1.93c-0.487,0.463-1.176,0.693-2.069,0.693
			c-0.824,0-1.553-0.208-2.183-0.621l0.483-0.812c0.261,0.139,0.527,0.254,0.805,0.346c0.277,0.094,0.583,0.14,0.919,0.14
			c0.55,0,0.979-0.147,1.292-0.44c0.31-0.295,0.466-0.687,0.466-1.176v-0.351h-1.19c-0.86,0-1.524-0.234-1.997-0.71
			c-0.472-0.474-0.709-1.158-0.709-2.054c0-0.951,0.304-1.709,0.907-2.271c0.605-0.562,1.411-0.843,2.421-0.843h1.588v4.93h0.992
			c0.042,0,0.062,0.018,0.062,0.049v0.839c0,0.041-0.02,0.06-0.062,0.06h-0.992V80.209z M168.248,78.971v-3.99h-0.52
			c-0.72,0-1.279,0.19-1.681,0.57c-0.399,0.378-0.6,0.909-0.6,1.592c0,0.633,0.136,1.094,0.411,1.389
			c0.274,0.294,0.688,0.439,1.245,0.439H168.248z"/>
		<path fill="#010101" d="M172.346,78.971c0.043,0,0.064,0.018,0.064,0.049v0.839c0,0.041-0.021,0.06-0.064,0.06h-2.191
			c-0.04,0-0.059-0.019-0.059-0.06V79.02c0-0.031,0.019-0.049,0.059-0.049H172.346z"/>
		<path fill="#010101" d="M173.667,78.971c0.045,0,0.065,0.018,0.065,0.049v0.839c0,0.041-0.021,0.06-0.065,0.06h-2.189
			c-0.039,0-0.06-0.019-0.06-0.06V79.02c0-0.031,0.021-0.049,0.06-0.049H173.667z"/>
		<path fill="#010101" d="M181.453,79.918c-0.364,0-0.698-0.061-1.003-0.179c-0.306-0.121-0.623-0.343-0.951-0.667
			c-0.177,0.248-0.415,0.451-0.71,0.611c-0.297,0.155-0.649,0.234-1.06,0.234h-4.18c-0.041,0-0.06-0.019-0.06-0.06V79.02
			c0-0.031,0.019-0.049,0.06-0.049h1.734v-3.99h1.03v3.99h1.308c0.391,0,0.695-0.128,0.913-0.387
			c0.215-0.258,0.324-0.596,0.324-1.016V74.98h1.031v2.914l-0.013,0.135c0.202,0.349,0.422,0.591,0.66,0.732
			c0.238,0.141,0.544,0.209,0.915,0.209h0.74v-4.93h1.029v4.93h1.622c0.045,0,0.065,0.018,0.065,0.049v0.839
			c0,0.041-0.021,0.06-0.065,0.06H181.453z"/>
		<path fill="#010101" d="M184.727,79.918c-0.038,0-0.059-0.019-0.059-0.06V79.02c0-0.031,0.021-0.049,0.059-0.049h1.965v-4.93
			h1.078v4.93h1.816c0.042,0,0.061,0.018,0.061,0.049v0.839c0,0.041-0.019,0.06-0.061,0.06H184.727z M186.172,72.887
			c-0.19,0-0.35-0.059-0.482-0.172c-0.132-0.115-0.198-0.301-0.198-0.556c0-0.259,0.066-0.444,0.198-0.559
			c0.133-0.113,0.292-0.17,0.482-0.17c0.205,0,0.368,0.061,0.49,0.186c0.123,0.124,0.185,0.305,0.185,0.543
			c0,0.231-0.061,0.411-0.18,0.538C186.544,72.823,186.381,72.887,186.172,72.887z M188.269,72.887
			c-0.211,0-0.377-0.063-0.499-0.189c-0.121-0.127-0.182-0.307-0.182-0.538c0-0.234,0.06-0.414,0.179-0.539
			c0.121-0.127,0.288-0.189,0.502-0.189c0.217,0,0.383,0.065,0.502,0.197c0.118,0.132,0.18,0.309,0.18,0.531
			c0,0.219-0.062,0.396-0.18,0.529C188.651,72.819,188.485,72.887,188.269,72.887z"/>
		<path fill="#010101" d="M189.468,79.918c-0.038,0-0.057-0.019-0.057-0.06V79.02c0-0.031,0.019-0.049,0.057-0.049h1.6v-8.264h1.078
			v9.211H189.468z"/>
		<path fill="#010101" d="M203.13,82.832c-0.756,0-1.354-0.264-1.788-0.787c-0.433-0.525-0.649-1.237-0.649-2.138
			c0-0.967,0.165-1.861,0.497-2.682h1.006c-0.277,0.697-0.415,1.569-0.415,2.611c0,0.655,0.136,1.16,0.409,1.515
			c0.271,0.356,0.662,0.533,1.172,0.533h0.592c0.703,0,1.217-0.159,1.545-0.479c0.329-0.319,0.49-0.804,0.49-1.451v-5.913h1.032
			v5.831c0,0.979-0.244,1.717-0.729,2.214c-0.486,0.497-1.249,0.746-2.291,0.746H203.13z M203.882,74.035
			c-0.208,0-0.374-0.063-0.496-0.19c-0.123-0.125-0.185-0.307-0.185-0.538c0-0.233,0.061-0.413,0.181-0.541
			c0.121-0.125,0.287-0.188,0.5-0.188c0.218,0,0.386,0.064,0.503,0.2c0.118,0.131,0.179,0.308,0.179,0.528s-0.061,0.398-0.179,0.529
			C204.268,73.97,204.1,74.035,203.882,74.035z"/>
		<path fill="#010101" d="M210.476,70.707h1.079v8.264h1.598c0.043,0,0.065,0.018,0.065,0.049v0.839c0,0.041-0.022,0.06-0.065,0.06
			h-2.677V70.707z"/>
		<path fill="#010101" d="M215.225,78.971c0.045,0,0.064,0.018,0.064,0.049v0.839c0,0.041-0.02,0.06-0.064,0.06h-2.189
			c-0.04,0-0.06-0.019-0.06-0.06V79.02c0-0.031,0.02-0.049,0.06-0.049H215.225z"/>
		<path fill="#010101" d="M216.548,78.971c0.042,0,0.066,0.018,0.066,0.049v0.839c0,0.041-0.024,0.06-0.066,0.06h-2.19
			c-0.04,0-0.062-0.019-0.062-0.06V79.02c0-0.031,0.021-0.049,0.062-0.049H216.548z"/>
		<path fill="#010101" d="M216.43,79.918c-0.041,0-0.06-0.019-0.06-0.06V79.02c0-0.031,0.019-0.049,0.06-0.049h1.503
			c-0.299-0.779-0.45-1.471-0.45-2.071c0-0.722,0.146-1.365,0.438-1.93c0.296-0.249,0.635-0.445,1.019-0.591
			c0.384-0.147,0.781-0.221,1.196-0.221c0.505,0,0.949,0.111,1.331,0.334c0.383,0.224,0.677,0.541,0.882,0.95
			c0.205,0.411,0.308,0.877,0.308,1.397c0,0.518-0.085,0.994-0.253,1.429c0.173,0.264,0.367,0.447,0.583,0.549
			c0.215,0.104,0.497,0.153,0.849,0.153h0.06c0.043,0,0.065,0.018,0.065,0.049v0.839c0,0.041-0.022,0.06-0.065,0.06h-0.06
			c-0.429,0-0.797-0.06-1.102-0.176c-0.304-0.119-0.597-0.323-0.875-0.609c-0.257,0.268-0.556,0.466-0.897,0.594
			c-0.341,0.128-0.698,0.191-1.067,0.191H216.43z M218.573,76.692c0,0.375,0.032,0.743,0.1,1.104c0.066,0.36,0.188,0.753,0.36,1.174
			h0.86c0.54,0,0.953-0.182,1.243-0.549c0.288-0.368,0.432-0.897,0.432-1.594c0-0.509-0.139-0.925-0.417-1.249
			c-0.279-0.321-0.619-0.485-1.016-0.485c-0.257,0-0.51,0.046-0.756,0.135c-0.245,0.093-0.466,0.213-0.659,0.361
			c-0.066,0.171-0.109,0.345-0.124,0.52C218.581,76.285,218.573,76.479,218.573,76.692z"/>
		<path fill="#010101" d="M223.776,79.918c-0.04,0-0.061-0.019-0.061-0.06V79.02c0-0.031,0.021-0.049,0.061-0.049h1.479v-4.568
			h1.031v2.242c0.379-0.903,0.855-1.584,1.427-2.041c0.573-0.459,1.215-0.688,1.931-0.688c0.915,0,1.606,0.248,2.074,0.746
			c0.467,0.497,0.701,1.276,0.701,2.332v2.924H223.776z M231.39,78.971v-1.923c0-0.745-0.163-1.295-0.488-1.646
			c-0.327-0.352-0.819-0.527-1.478-0.527c-1.244,0-2.289,1.033-3.138,3.104v0.992H231.39z M229.307,72.887
			c-0.211,0-0.376-0.063-0.499-0.189c-0.12-0.127-0.182-0.307-0.182-0.538c0-0.234,0.06-0.414,0.179-0.539
			c0.121-0.127,0.287-0.189,0.502-0.189c0.217,0,0.384,0.065,0.502,0.197s0.179,0.309,0.179,0.531c0,0.219-0.061,0.396-0.179,0.529
			C229.69,72.819,229.523,72.887,229.307,72.887z"/>
	</g>
	<g>
		<path fill-rule="evenodd" clip-rule="evenodd" fill="#217C3E" stroke="#217C3E" stroke-miterlimit="10" d="M184.877,64.616
			c-0.016-0.047-0.031-0.095-0.046-0.141c-0.269-0.739-0.711-1.18-1.582-1.042c-0.333,0.053-0.691-0.019-1.032-0.062
			c-0.859-0.101-1.686,0.029-2.469,0.372c-0.862,0.377-1.6-0.099-2.38-0.306c-0.043-0.011-0.1-0.049-0.114-0.089
			c-0.276-0.736-0.717-1.378-1.164-2.02c-0.072-0.104-0.063-0.308-0.146-0.355c-0.47-0.247-0.634-0.613-0.683-1.137
			c-0.027-0.284-0.423-0.315-0.671-0.188c-0.713,0.362-1.465,0.333-2.226,0.323c-0.651-0.006-0.791,0.145-0.854,0.812
			c-0.026,0.282-0.106,0.519-0.401,0.621c-0.189,0.064-0.286,0.206-0.344,0.389c-0.154,0.478-0.493,0.709-0.979,0.662
			c-0.625-0.059-1.213,0.038-1.78,0.301c-0.609,0.28-1.264,0.183-1.903,0.183c-0.264-0.001-0.268-0.179-0.254-0.38
			c0.053-0.72-0.167-1.369-0.603-1.931c-0.973-1.252-1.957-2.493-2.955-3.726c-0.254-0.314-0.308-0.523,0.115-0.707
			c0.453-0.198,0.346-0.549,0.188-0.877c-0.393-0.817-0.762-1.653-1.213-2.437c-0.649-1.131-0.983-2.332-1.028-3.624
			c-0.013-0.399-0.157-0.518-0.559-0.413c-0.492,0.131-1.001,0.199-1.503,0.296c0-0.496,0-0.991,0-1.487
			c0.508-1.102,0.953-2.218,0.874-3.467c-0.027-0.411,0.158-0.706,0.49-0.907c0.416-0.254,0.577-0.61,0.503-1.086
			c-0.146-0.96,0.104-1.787,0.825-2.461c0.117-0.111,0.193-0.269,0.31-0.386c0.904-0.925,1.458-2.028,1.647-3.307
			c0.075-0.513,0.356-0.691,0.872-0.728c1.151-0.079,2.297-0.252,3.448-0.347c0.427-0.034,0.553-0.189,0.554-0.608
			c0.01-3.074,0.051-6.147,0.063-9.222c0.013-3.156,0.005-6.314,0.008-9.472c0-0.661,0.011-0.672,0.66-0.674
			c1.008-0.003,2.017-0.002,3.024-0.005c0.695-0.001,0.695-0.002,0.697-0.721c0.006-2.512,0.012-5.025,0.02-7.538
			c0.002-0.769,0.004-0.771,0.771-0.771c8.812,0,17.623-0.004,26.433,0.011c0.492,0.001,0.816-0.119,1.026-0.573
			c0.121-0.263,0.264-0.545,0.669-0.423c0.285,0.085,0.461,0.2,0.309,0.52c-0.19,0.396-0.018,0.476,0.355,0.475
			c2.183-0.007,4.363,0.009,6.545-0.002c0.438-0.002,0.834,0.058,1.138,0.377c0.801,0.85,1.801,0.729,2.808,0.612
			c0.229-0.027,0.293-0.187,0.352-0.362c0.131-0.409,0.264-0.818,0.374-1.233c0.077-0.283,0.225-0.447,0.526-0.514
			c0.549-0.121,1.082-0.294,1.631-0.419c0.29-0.066,0.458-0.223,0.57-0.487c0.238-0.563,0.504-1.115,0.738-1.679
			c0.129-0.306,0.322-0.421,0.614-0.256c0.531,0.299,0.925,0.12,1.307-0.292c0.268-0.289,0.594-0.523,0.886-0.793
			c0.225-0.209,0.438-0.262,0.591,0.053c0.512,1.053,1.412,1.614,2.466,1.999c0.3,0.11,0.538,0.308,0.755,0.544
			c0.51,0.563,1.009,1.14,1.557,1.667c0.548,0.529,0.898,1.114,0.888,1.901C225.58,8,225.95,8.783,226.56,9.452
			c0.486,0.536,0.639,1.141,0.599,1.863c-0.073,1.335-0.071,2.674-0.099,4.013c-0.035,1.702,0.425,3.337,0.737,4.988
			c0.1,0.522,0.629,0.907,1.122,1.193c0.129,0.073,0.276,0.122,0.419,0.152c0.808,0.175,1.408,0.604,1.744,1.379
			c0.145,0.333,0.404,0.481,0.785,0.487c0.62,0.01,0.992,0.553,0.792,1.152c-0.178,0.532-0.41,1.046-0.602,1.574
			c-0.09,0.246-0.279,0.353-0.497,0.444c-0.61,0.258-1.21,0.531-1.822,0.778c-0.726,0.294-1.435,0.604-1.97,1.202
			c-0.272,0.302-0.616,0.438-1.015,0.44c-0.288,0.002-0.439,0.114-0.514,0.412c-0.799,3.137-1.621,6.269-2.402,9.41
			c-0.147,0.594,0.037,1.217,0.083,1.823c0.1,1.244,0.138,2.46-0.291,3.669c-0.357,1.012-0.621,2.055-0.904,3.092
			c-0.088,0.319-0.224,0.582-0.507,0.758c-2.041,1.244-3.119,3.33-4.465,5.172c-0.365,0.499-0.427,1.188-0.497,1.801
			c-0.138,1.203-0.694,1.969-1.908,2.212c-0.314,0.063-0.487,0.291-0.634,0.572c-0.242,0.462-0.437,0.945-0.785,1.363
			c-0.187,0.223-0.133,0.662-0.152,1.006c-0.053,0.923-0.1,1.848-0.121,2.773c-0.011,0.451-0.177,0.673-0.651,0.643
			c-0.379-0.021-0.761,0.007-1.139-0.011c-0.433-0.021-0.623-0.259-0.559-0.686c0.048-0.328,0.166-0.636,0.304-0.939
			c0.252-0.56,0.309-1.058-0.22-1.567c-0.385-0.369-0.694-0.829-1.071-1.226c-0.525-0.547-1.069-1.024-1.851-1.147
			c-0.285-0.045-0.403-0.213-0.237-0.496c0.124-0.213,0.111-0.432,0.067-0.67c-0.18-0.926-0.352-1.851-0.493-2.78
			c-0.1-0.653,0.17-1.269,0.283-1.898c0.176-0.989,0.195-0.985-0.791-0.985c-0.134,0-0.265-0.001-0.397,0
			c-0.666,0.004-0.683,0.003-0.697,0.688c-0.007,0.391-0.141,0.567-0.557,0.55c-0.621-0.024-1.244-0.007-1.845-0.007
			c-0.056,0.13-0.007,0.187,0.046,0.216c0.747,0.461,0.875,1.154,0.809,1.965c-0.048,0.569-0.095,1.162,0.327,1.653
			c0.147,0.174,0.053,0.342-0.09,0.48c-0.58,0.556-1.031,1.259-1.824,1.568c-0.24,0.092-0.323,0.325-0.412,0.536
			c-0.58,1.37-1.703,2.342-2.569,3.5c-0.136,0.182-0.338,0.178-0.538,0.196c-0.597,0.061-1.215-0.145-1.794,0.188
			c-0.172,0.099-0.325-0.117-0.463-0.228c-0.989-0.806-2.005-1.56-3.188-2.076c-0.352-0.153-0.647-0.203-0.978-0.001
			c-0.11,0.068-0.236,0.124-0.363,0.156c-0.68,0.18-0.939,0.589-0.871,1.306c0.063,0.635-0.015,0.657-0.666,0.66
			c-1.613,0.012-1.611,0.014-2.646,1.211c-0.162,0.188-0.204,0.406-0.236,0.637C187.189,64.616,186.033,64.616,184.877,64.616z
			 M186.487,6.212c-4.396,0-8.794,0-13.192,0c-0.697,0-0.7,0.001-0.701,0.715c-0.01,2.562-0.021,5.125-0.014,7.687
			c0.001,0.466-0.158,0.644-0.638,0.634c-1.039-0.025-2.082-0.004-3.123,0c-0.675,0.001-0.675,0.002-0.677,0.682
			c-0.003,4.76-0.005,9.521-0.01,14.283c-0.003,1.455-0.02,2.909-0.016,4.363c0.002,0.396-0.107,0.595-0.551,0.629
			c-1.217,0.1-2.429,0.264-3.646,0.371c-0.429,0.037-0.675,0.193-0.741,0.628c-0.188,1.264-0.754,2.341-1.634,3.263
			c-0.135,0.143-0.23,0.328-0.374,0.46c-0.696,0.639-0.898,1.417-0.716,2.329c0.086,0.437-0.022,0.828-0.438,1.069
			c-0.49,0.285-0.632,0.737-0.602,1.26c0.041,0.765-0.149,1.469-0.456,2.16c-0.197,0.45-0.416,0.9-0.438,1.413
			c-0.024,0.674-0.005,0.694,0.631,0.556c0.242-0.055,0.484-0.107,0.726-0.161c0.634-0.142,0.629-0.111,0.731,0.534
			c0.143,0.902,0.069,1.837,0.536,2.694c0.607,1.118,1.134,2.278,1.685,3.425c0.268,0.555,0.216,0.857-0.234,1.195
			c-0.27,0.202-0.094,0.326,0.025,0.477c0.859,1.09,1.699,2.197,2.595,3.258c0.535,0.634,0.82,1.345,0.932,2.143
			c0.03,0.219,0.112,0.299,0.323,0.354c0.673,0.175,1.272-0.057,1.875-0.29c0.277-0.105,0.545-0.238,0.857-0.202
			c0.436,0.053,0.995,0.252,1.194-0.264c0.178-0.46,0.573-0.643,0.821-0.988c0.028-0.037,0.021-0.096,0.028-0.146
			c0.12-0.806,0.394-1.115,1.176-1.058c0.748,0.055,1.437-0.021,2.128-0.306c0.313-0.126,0.8-0.107,0.877,0.221
			c0.133,0.569,0.459,0.954,0.816,1.356c0.072,0.079,0.072,0.218,0.112,0.326c0.037,0.091,0.06,0.217,0.13,0.259
			c0.483,0.297,0.583,0.82,0.8,1.276c0.061,0.135,0.085,0.322,0.232,0.369c0.649,0.191,1.267,0.631,1.992,0.336
			c0.956-0.39,1.943-0.499,2.962-0.408c0.364,0.031,0.732,0.108,1.088,0.069c0.655-0.074,1.077,0.167,1.301,0.782
			c0.114,0.319,0.341,0.44,0.689,0.427c0.693-0.025,1.387-0.017,2.081-0.005c0.275,0.006,0.408-0.112,0.594-0.317
			c0.672-0.74,1.165-1.725,2.472-1.577c0.996,0.112,0.914,0.092,0.896-0.888c-0.011-0.431,0.134-0.674,0.543-0.813
			c0.373-0.129,0.735-0.299,1.086-0.483c0.293-0.152,0.541-0.125,0.839,0.007c1.206,0.533,2.277,1.27,3.284,2.11
			c0.12,0.102,0.237,0.262,0.426,0.193c0.548-0.205,1.113-0.074,1.669-0.113c0.184-0.015,0.366-0.004,0.493-0.175
			c0.863-1.141,1.961-2.113,2.528-3.47c0.098-0.231,0.209-0.458,0.464-0.555c0.713-0.273,1.136-0.89,1.651-1.395
			c0.146-0.145,0.208-0.306,0.069-0.481c-0.257-0.324-0.292-0.699-0.255-1.083c0.103-1.034-0.006-1.973-1.032-2.552
			c-0.093-0.054-0.195-0.15-0.145-0.286c0.051-0.138,0.189-0.113,0.3-0.114c0.546-0.006,1.092-0.004,1.637-0.005
			c0.708-0.001,0.728-0.001,0.73-0.729c0.003-0.407,0.162-0.564,0.564-0.554c0.609,0.017,1.222,0.006,1.834,0.005
			c0.323,0,0.45,0.026,0.328,0.453c-0.291,1.005-0.683,2.007-0.476,3.093c0.097,0.502,0.205,1.005,0.27,1.512
			c0.072,0.546,0.326,1.08,0.113,1.655c-0.061,0.166,0.131,0.211,0.257,0.23c0.685,0.1,1.136,0.55,1.589,1.018
			c0.427,0.438,0.793,0.938,1.224,1.356c0.626,0.612,0.537,1.208,0.258,1.89c-0.098,0.241-0.184,0.493-0.245,0.749
			c-0.068,0.282,0.048,0.447,0.358,0.439c1.473-0.044,1.378,0.32,1.458-1.324c0.049-0.958,0.103-1.912,0.166-2.869
			c0.008-0.138-0.021-0.381,0.133-0.392c0.451-0.035,0.49-0.415,0.602-0.688c0.239-0.592,0.608-1.012,1.246-1.148
			c0.831-0.182,1.194-0.7,1.345-1.533c0.206-1.145,0.496-2.254,1.266-3.229c1.216-1.535,2.206-3.264,3.948-4.315
			c0.245-0.148,0.306-0.419,0.381-0.674c0.326-1.128,0.623-2.264,0.985-3.378c0.292-0.892,0.249-1.783,0.203-2.695
			c-0.044-0.82-0.296-1.65-0.095-2.464c0.784-3.157,1.61-6.306,2.409-9.459c0.084-0.326,0.248-0.455,0.581-0.482
			c0.285-0.025,0.622,0.01,0.837-0.235c0.766-0.868,1.821-1.227,2.838-1.657c1.506-0.634,1.505-0.636,2.073-2.162
			c0.012-0.029,0.022-0.061,0.032-0.093c0.189-0.562-0.034-0.92-0.62-0.927c-0.394-0.003-0.677-0.135-0.83-0.496
			c-0.331-0.774-0.924-1.212-1.729-1.396c-0.128-0.029-0.263-0.067-0.375-0.134c-0.591-0.35-1.135-0.791-1.311-1.47
			c-0.796-3.091-0.801-6.242-0.625-9.401c0.019-0.313-0.004-0.586-0.216-0.831c-0.842-0.974-1.408-2.059-1.407-3.389
			c0-0.22,0.006-0.467-0.172-0.658c-0.772-0.835-1.542-1.678-2.324-2.508c-0.108-0.115-0.269-0.192-0.418-0.256
			c-1.009-0.429-2.011-0.86-2.515-1.945c-0.112-0.244-0.279-0.227-0.469-0.048c-0.288,0.272-0.616,0.505-0.884,0.795
			c-0.356,0.384-0.728,0.543-1.219,0.269c-0.273-0.153-0.441-0.072-0.562,0.233c-0.197,0.508-0.462,0.989-0.655,1.499
			c-0.145,0.387-0.393,0.571-0.784,0.651c-0.485,0.099-0.958,0.254-1.441,0.362c-0.293,0.065-0.453,0.22-0.53,0.508
			c-0.115,0.43-0.262,0.853-0.392,1.279c-0.05,0.166-0.122,0.326-0.314,0.34c-1.05,0.076-2.139,0.416-3.03-0.516
			c-0.359-0.375-0.828-0.462-1.357-0.458c-2.217,0.021-4.431,0.003-6.646-0.001c-0.301,0-0.599,0.002-0.432-0.458
			c0.056-0.152,0.229-0.37-0.008-0.476c-0.218-0.097-0.321,0.149-0.385,0.299c-0.225,0.549-0.636,0.648-1.188,0.645
			C195.183,6.204,190.834,6.212,186.487,6.212z"/>
		<path fill-rule="evenodd" clip-rule="evenodd" fill="none" stroke="#217C3E" stroke-miterlimit="10" d="M186.487,6.212
			c4.347,0,8.695-0.009,13.042,0.01c0.552,0.003,0.963-0.096,1.188-0.645c0.063-0.15,0.167-0.396,0.385-0.299
			c0.237,0.106,0.063,0.324,0.008,0.476c-0.167,0.46,0.131,0.458,0.432,0.458c2.216,0.005,4.43,0.023,6.646,0.001
			c0.529-0.004,0.998,0.083,1.357,0.458c0.892,0.931,1.98,0.592,3.03,0.516c0.192-0.014,0.265-0.174,0.314-0.34
			c0.13-0.427,0.276-0.849,0.392-1.279c0.077-0.289,0.237-0.443,0.53-0.508c0.483-0.108,0.956-0.264,1.441-0.362
			c0.392-0.08,0.64-0.264,0.784-0.651c0.193-0.51,0.458-0.991,0.655-1.499c0.12-0.306,0.288-0.387,0.562-0.233
			c0.491,0.274,0.862,0.115,1.219-0.269c0.268-0.29,0.596-0.523,0.884-0.795c0.189-0.179,0.356-0.196,0.469,0.048
			c0.504,1.085,1.506,1.516,2.515,1.945c0.149,0.063,0.31,0.141,0.418,0.256c0.782,0.831,1.552,1.673,2.324,2.508
			c0.178,0.191,0.172,0.438,0.172,0.658c-0.001,1.33,0.565,2.415,1.407,3.389c0.212,0.245,0.234,0.519,0.216,0.831
			c-0.176,3.159-0.171,6.31,0.625,9.401c0.176,0.68,0.72,1.12,1.311,1.47c0.112,0.067,0.247,0.105,0.375,0.134
			c0.805,0.183,1.397,0.622,1.729,1.396c0.153,0.361,0.437,0.492,0.83,0.496c0.586,0.006,0.81,0.365,0.62,0.927
			c-0.01,0.032-0.021,0.064-0.032,0.093c-0.568,1.525-0.567,1.527-2.073,2.162c-1.017,0.43-2.072,0.789-2.838,1.657
			c-0.215,0.246-0.552,0.21-0.837,0.235c-0.333,0.028-0.497,0.157-0.581,0.482c-0.799,3.154-1.625,6.302-2.409,9.459
			c-0.201,0.814,0.051,1.644,0.095,2.464c0.046,0.912,0.089,1.804-0.203,2.695c-0.362,1.114-0.659,2.25-0.985,3.378
			c-0.075,0.255-0.136,0.525-0.381,0.674c-1.742,1.052-2.732,2.78-3.948,4.315c-0.77,0.975-1.06,2.084-1.266,3.229
			c-0.15,0.833-0.514,1.352-1.345,1.533c-0.638,0.137-1.007,0.557-1.246,1.148c-0.111,0.273-0.15,0.653-0.602,0.688
			c-0.153,0.011-0.125,0.254-0.133,0.392c-0.063,0.957-0.117,1.911-0.166,2.869c-0.08,1.645,0.015,1.28-1.458,1.324
			c-0.311,0.008-0.427-0.157-0.358-0.439c0.062-0.256,0.147-0.508,0.245-0.749c0.279-0.682,0.368-1.277-0.258-1.89
			c-0.431-0.418-0.797-0.919-1.224-1.356c-0.453-0.468-0.904-0.918-1.589-1.018c-0.126-0.02-0.317-0.064-0.257-0.23
			c0.213-0.575-0.041-1.109-0.113-1.655c-0.064-0.507-0.173-1.01-0.27-1.512c-0.207-1.086,0.185-2.088,0.476-3.093
			c0.122-0.427-0.005-0.453-0.328-0.453c-0.612,0.001-1.225,0.012-1.834-0.005c-0.402-0.011-0.562,0.146-0.564,0.554
			c-0.003,0.728-0.022,0.728-0.73,0.729c-0.545,0.001-1.091-0.001-1.637,0.005c-0.11,0.001-0.249-0.023-0.3,0.114
			c-0.051,0.136,0.052,0.232,0.145,0.286c1.026,0.579,1.135,1.518,1.032,2.552c-0.037,0.384-0.002,0.759,0.255,1.083
			c0.139,0.176,0.076,0.337-0.069,0.481c-0.516,0.505-0.938,1.121-1.651,1.395c-0.255,0.097-0.366,0.323-0.464,0.555
			c-0.567,1.356-1.665,2.329-2.528,3.47c-0.127,0.171-0.31,0.16-0.493,0.175c-0.556,0.039-1.121-0.092-1.669,0.113
			c-0.188,0.068-0.306-0.092-0.426-0.193c-1.007-0.841-2.078-1.577-3.284-2.11c-0.298-0.132-0.546-0.159-0.839-0.007
			c-0.351,0.185-0.713,0.354-1.086,0.483c-0.409,0.14-0.554,0.383-0.543,0.813c0.018,0.979,0.1,1-0.896,0.888
			c-1.307-0.147-1.8,0.837-2.472,1.577c-0.186,0.205-0.318,0.323-0.594,0.317c-0.694-0.012-1.388-0.021-2.081,0.005
			c-0.349,0.014-0.575-0.107-0.689-0.427c-0.224-0.615-0.646-0.856-1.301-0.782c-0.355,0.039-0.724-0.038-1.088-0.069
			c-1.019-0.091-2.006,0.019-2.962,0.408c-0.726,0.295-1.343-0.145-1.992-0.336c-0.147-0.047-0.172-0.234-0.232-0.369
			c-0.217-0.456-0.316-0.979-0.8-1.276c-0.07-0.042-0.093-0.168-0.13-0.259c-0.04-0.108-0.04-0.247-0.112-0.326
			c-0.357-0.402-0.684-0.787-0.816-1.356c-0.077-0.328-0.564-0.347-0.877-0.221c-0.691,0.284-1.38,0.36-2.128,0.306
			c-0.782-0.058-1.056,0.252-1.176,1.058c-0.008,0.05,0,0.108-0.028,0.146c-0.248,0.346-0.644,0.528-0.821,0.988
			c-0.199,0.516-0.759,0.316-1.194,0.264c-0.313-0.036-0.58,0.097-0.857,0.202c-0.603,0.233-1.202,0.465-1.875,0.29
			c-0.211-0.055-0.293-0.135-0.323-0.354c-0.111-0.798-0.396-1.509-0.932-2.143c-0.896-1.061-1.735-2.168-2.595-3.258
			c-0.119-0.15-0.295-0.274-0.025-0.477c0.45-0.338,0.502-0.641,0.234-1.195c-0.551-1.146-1.077-2.307-1.685-3.425
			c-0.467-0.857-0.394-1.792-0.536-2.694c-0.103-0.646-0.098-0.676-0.731-0.534c-0.241,0.054-0.483,0.106-0.726,0.161
			c-0.636,0.139-0.655,0.118-0.631-0.556c0.021-0.513,0.24-0.963,0.438-1.413c0.307-0.691,0.497-1.396,0.456-2.16
			c-0.03-0.522,0.111-0.975,0.602-1.26c0.415-0.242,0.523-0.633,0.438-1.069c-0.183-0.912,0.02-1.69,0.716-2.329
			c0.144-0.132,0.239-0.317,0.374-0.46c0.88-0.922,1.445-2,1.634-3.263c0.066-0.436,0.313-0.592,0.741-0.628
			c1.217-0.106,2.429-0.271,3.646-0.371c0.443-0.035,0.553-0.234,0.551-0.629c-0.004-1.454,0.013-2.908,0.016-4.363
			c0.005-4.761,0.007-9.522,0.01-14.283c0.002-0.68,0.002-0.681,0.677-0.682c1.041-0.004,2.084-0.025,3.123,0
			c0.479,0.01,0.639-0.167,0.638-0.634c-0.007-2.563,0.004-5.125,0.014-7.687c0.001-0.714,0.004-0.715,0.701-0.715
			C177.693,6.212,182.092,6.212,186.487,6.212z"/>
	</g>
</g>
</svg>
